<svg width="30" height="21" viewBox="0 0 30 21" fill="none" xmlns="http://www.w3.org/2000/svg">
<path d="M0.907386 2.85185H28.1297C28.6306 2.85185 29.037 2.21297 29.037 1.42593C29.037 0.638762 28.6305 0 28.1297 0H0.907386C0.406551 0 0 0.638762 0 1.42593C0 2.21309 0.406551 2.85185 0.907386 2.85185Z" fill="black"/>
<path d="M28.1297 9.07397H0.907386C0.406476 9.07397 0 9.71286 0 10.4999C0 11.2869 0.406551 11.9258 0.907386 11.9258H28.1297C28.6306 11.9258 29.037 11.2869 29.037 10.4999C29.037 9.71286 28.6306 9.07397 28.1297 9.07397Z" fill="black"/>
<path d="M28.1297 18.1482H0.907386C0.406476 18.1482 0 18.7871 0 19.5741C0 20.3613 0.406551 21 0.907386 21H28.1297C28.6306 21 29.037 20.3612 29.037 19.5741C29.0371 18.787 28.6306 18.1482 28.1297 18.1482Z" fill="black"/>
</svg>
