<svg width="120" height="120" viewBox="0 0 120 120" fill="none" xmlns="http://www.w3.org/2000/svg">
<rect width="120" height="120" rx="20" fill="#EEEEEE"/>
<path d="M56.2111 20.2421C60.6825 29.4583 46.92 35.718 40.6062 28.8049C37.9753 25.8597 39.1853 20.1683 45.5669 17.0754C48.7606 15.492 53.232 14.0526 56.2111 20.2421Z" fill="black"/>
<path d="M84.359 16.1871C89.2237 26.2196 74.2342 33.0361 67.3633 25.5093C64.4991 22.299 65.8145 16.1094 72.7701 12.74C76.2441 11.0146 81.1108 9.45205 84.359 16.1871Z" fill="black"/>
<path fill-rule="evenodd" clip-rule="evenodd" d="M55.5733 101.949C65.7545 103.121 76.3516 99.9263 80.4447 93.3276C83.9056 87.7915 81.0733 85.8748 77.0855 90.3446C68.6921 100.034 59.9826 95.6686 56.311 85.8748L57.2557 85.5566C74.9872 78.4238 86.1093 59.052 79.0803 48.0877C69.4242 32.9717 39.2062 46.4891 35.4273 67.6735C31.9646 87.2593 40.9884 100.352 55.5733 101.949ZM66.4882 49.154C69.5313 54.05 65.8596 71.4008 54.841 79.278C54.5267 76.8271 54.5267 74.168 54.7356 71.4008C56.9393 52.0272 63.2362 44.0459 66.4882 49.154Z" fill="black"/>
</svg>
