<?xml version="1.0" encoding="UTF-8"?><!DOCTYPE svg PUBLIC "-//W3C//DTD SVG 1.1//EN" "http://www.w3.org/Graphics/SVG/1.1/DTD/svg11.dtd"><svg xmlns="http://www.w3.org/2000/svg" xmlns:xlink="http://www.w3.org/1999/xlink"><symbol id="figma" viewBox="0 0 45 45"><path fill="#19BCFE" d="M30 30a7.5 7.5 0 1 0 0-15 7.5 7.5 0 0 0 0 15Z"/><path fill="#09CF83" fill-rule="evenodd" d="M15 45a7.5 7.5 0 0 0 7.5-7.5V30H15a7.5 7.5 0 0 0 0 15Z" clip-rule="evenodd"/><path fill="#A259FF" fill-rule="evenodd" d="M15 30h7.5V15H15a7.5 7.5 0 0 0 0 15Z" clip-rule="evenodd"/><path fill="#F24E1E" fill-rule="evenodd" d="M15 15h7.5V0H15a7.5 7.5 0 0 0 0 15Z" clip-rule="evenodd"/><path fill="#FF7262" fill-rule="evenodd" d="M30 15h-7.5V0H30a7.5 7.5 0 0 1 0 15Z" clip-rule="evenodd"/></symbol><symbol id="github" viewBox="0 0 24 24"><path fill="none" d="M0 0h24v24H0z"/><path d="M12 2a10 10 0 0 0-3.16 19.5c.5.08.66-.23.66-.5v-1.69C6.73 19.91 6.14 18 6.14 18A2.69 2.69 0 0 0 5 16.5c-.91-.62.07-.6.07-.6a2.1 2.1 0 0 1 1.53 1 2.15 2.15 0 0 0 2.91.83 2.16 2.16 0 0 1 .63-1.34C8 16.17 5.62 15.31 5.62 11.5a3.87 3.87 0 0 1 1-2.71 3.58 3.58 0 0 1 .1-2.64s.84-.27 2.75 1a9.63 9.63 0 0 1 5 0c1.91-1.29 2.75-1 2.75-1a3.58 3.58 0 0 1 .1 2.64 3.87 3.87 0 0 1 1 2.71c0 3.82-2.34 4.66-4.57 4.91a2.39 2.39 0 0 1 .69 1.85V21c0 .27.16.59.67.5A10 10 0 0 0 12 2Z"/></symbol><symbol id="mail" viewBox="-4 0 32 32"><path d="M24 8.375 12 18.656 0 8.375v-.594h24v.594zm0 14.5-7.938-5.719L24 10.281v12.594zM0 10.281l7.938 6.875L0 22.875V10.281zm12 10.407 3.281-2.875L24 24.094v.125H0v-.125l8.719-6.281z"/></symbol><symbol id="phone" viewBox="0 0 32 32"><path d="M11.748 5.773S11.418 5 10.914 5c-.496 0-.754.229-.926.387S6.938 7.91 6.938 7.91s-.837.731-.773 2.106c.054 1.375.323 3.332 1.719 6.058 1.386 2.72 4.855 6.876 7.047 8.337 0 0 2.031 1.558 3.921 2.191.549.173 1.647.398 1.903.398.26 0 .719 0 1.246-.385.536-.389 3.543-2.807 3.543-2.807s.736-.665-.119-1.438c-.859-.773-3.467-2.492-4.025-2.944-.559-.459-1.355-.257-1.699.054-.343.313-.956.828-1.031.893-.112.086-.419.365-.763.226-.438-.173-2.234-1.148-3.899-3.426-1.655-2.276-1.837-3.02-2.084-3.824a.56.56 0 0 1 .225-.657c.248-.172 1.161-.933 1.161-.933s.591-.583.344-1.27-1.906-4.716-1.906-4.716z"/></symbol><symbol id="right-chevron" viewBox="0 0 24 24"><path fill-rule="evenodd" d="M8.293 4.293a1 1 0 0 1 1.414 0l7 7a1 1 0 0 1 0 1.414l-7 7a1 1 0 0 1-1.414-1.414L14.586 12 8.293 5.707a1 1 0 0 1 0-1.414Z" clip-rule="evenodd"/></symbol><symbol id="website" viewBox="0 0 512 512"><path d="M256 0C114.615 0 0 114.615 0 256s114.615 256 256 256 256-114.615 256-256S397.385 0 256 0zm162.275 146h-46.667c-5.365-22.513-12.324-43.213-20.587-61.514 15.786 8.776 30.449 19.797 43.572 32.921A198.054 198.054 0 0 1 418.275 146zM452 256c0 17.108-2.191 33.877-6.414 50h-64.034c1.601-16.172 2.448-32.887 2.448-50s-.847-33.828-2.448-50h64.034c4.223 16.123 6.414 32.892 6.414 50zM256 452c-5.2 0-21.048-10.221-36.844-41.813-6.543-13.087-12.158-27.994-16.752-44.187h107.191c-4.594 16.192-10.208 31.1-16.752 44.187C277.048 441.779 261.2 452 256 452zm-65.187-146c-1.847-16.247-2.813-33.029-2.813-50s.966-33.753 2.813-50h130.374c1.847 16.247 2.813 33.029 2.813 50s-.966 33.753-2.813 50H190.813zM60 256c0-17.108 2.191-33.877 6.414-50h64.034c-1.601 16.172-2.448 32.887-2.448 50s.847 33.828 2.448 50H66.414C62.191 289.877 60 273.108 60 256zM256 60c5.2 0 21.048 10.221 36.844 41.813 6.543 13.087 12.158 27.994 16.752 44.187H202.404c4.594-16.192 10.208-31.1 16.752-44.187C234.952 70.221 250.8 60 256 60zm-95.021 24.486c-8.264 18.301-15.222 39-20.587 61.514H93.725a198.12 198.12 0 0 1 23.682-28.593c13.124-13.124 27.786-24.145 43.572-32.921zM93.725 366h46.667c5.365 22.513 12.324 43.213 20.587 61.514-15.786-8.776-30.449-19.797-43.572-32.921A198.054 198.054 0 0 1 93.725 366zm257.296 61.514c8.264-18.301 15.222-39 20.587-61.514h46.667a198.12 198.12 0 0 1-23.682 28.593c-13.124 13.124-27.786 24.145-43.572 32.921z"/></symbol></svg>