<?xml version="1.0" encoding="UTF-8"?>
<!DOCTYPE svg PUBLIC "-//W3C//DTD SVG 1.1//EN" "http://www.w3.org/Graphics/SVG/1.1/DTD/svg11.dtd">
<svg xmlns="http://www.w3.org/2000/svg" xmlns:xlink="http://www.w3.org/1999/xlink">
<symbol id="figma" viewBox="0 0 45 45">
	<path fill="#19BCFE" d="M30 30a7.5 7.5 0 1 0 0-15 7.5 7.5 0 0 0 0 15Z"/>
	<path fill="#09CF83" fill-rule="evenodd" d="M15 45a7.5 7.5 0 0 0 7.5-7.5V30H15a7.5 7.5 0 0 0 0 15Z" clip-rule="evenodd"/>
	<path fill="#A259FF" fill-rule="evenodd" d="M15 30h7.5V15H15a7.5 7.5 0 0 0 0 15Z" clip-rule="evenodd"/>
	<path fill="#F24E1E" fill-rule="evenodd" d="M15 15h7.5V0H15a7.5 7.5 0 0 0 0 15Z" clip-rule="evenodd"/>
	<path fill="#FF7262" fill-rule="evenodd" d="M30 15h-7.5V0H30a7.5 7.5 0 0 1 0 15Z" clip-rule="evenodd"/>
</symbol>
<symbol id="github" viewBox="0 0 24 24">
	<path fill="none" d="M0 0h24v24H0z"/>
	<path d="M12 2a10 10 0 0 0-3.16 19.5c.5.08.66-.23.66-.5v-1.69C6.73 19.91 6.14 18 6.14 18A2.69 2.69 0 0 0 5 16.5c-.91-.62.07-.6.07-.6a2.1 2.1 0 0 1 1.53 1 2.15 2.15 0 0 0 2.91.83 2.16 2.16 0 0 1 .63-1.34C8 16.17 5.62 15.31 5.62 11.5a3.87 3.87 0 0 1 1-2.71 3.58 3.58 0 0 1 .1-2.64s.84-.27 2.75 1a9.63 9.63 0 0 1 5 0c1.91-1.29 2.75-1 2.75-1a3.58 3.58 0 0 1 .1 2.64 3.87 3.87 0 0 1 1 2.71c0 3.82-2.34 4.66-4.57 4.91a2.39 2.39 0 0 1 .69 1.85V21c0 .27.16.59.67.5A10 10 0 0 0 12 2Z"/>
</symbol>
<symbol id="mail" viewBox="-4 0 32 32">
	<path d="M24 8.375 12 18.656 0 8.375v-.594h24v.594zm0 14.5-7.938-5.719L24 10.281v12.594zM0 10.281l7.938 6.875L0 22.875V10.281zm12 10.407 3.281-2.875L24 24.094v.125H0v-.125l8.719-6.281z"/>
</symbol>
<symbol id="phone" viewBox="0 0 32 32">
	<path d="M0 10.375c0 .938.344 1.969.781 3.063s1 2.125 1.438 2.906c1.188 2.063 2.719 4.094 4.469 5.781s3.813 3.094 6.125 3.938c1.344.531 2.688 1.125 4.188 1.125.75 0 1.813-.281 2.781-.688.938-.406 1.781-1.031 2.094-1.781.125-.281.281-.656.375-1.094.094-.406.156-.813.156-1.094 0-.156 0-.313-.031-.344-.094-.188-.313-.344-.563-.5-.563-.281-.656-.375-1.5-.875-.875-.5-1.781-1.063-2.563-1.469-.375-.219-.625-.313-.719-.313-.5 0-1.125.688-1.656 1.438-.563.75-1.188 1.438-1.625 1.438-.219 0-.438-.094-.688-.25s-.5-.281-.656-.375c-2.75-1.563-4.594-3.406-6.156-6.125-.188-.313-.625-.969-.625-1.313 0-.406.563-.875 1.125-1.375.531-.469 1.094-1.031 1.094-1.719 0-.094-.063-.375-.188-.781-.281-.813-.656-1.75-.969-2.656-.156-.438-.281-.75-.313-.906-.063-.094-.094-.219-.125-.375s-.094-.281-.125-.406c-.094-.281-.25-.5-.406-.625a3.72 3.72 0 0 0-.906-.188c-.375 0-.813-.031-1-.031-.094 0-.219 0-.344.031h-.406c-1 .438-1.719 1.313-2.25 2.344-.5 1.031-.813 2.188-.813 3.219z"/>
</symbol>
<symbol id="right-chevron" viewBox="0 0 24 24">
	<path fill-rule="evenodd" d="M8.293 4.293a1 1 0 0 1 1.414 0l7 7a1 1 0 0 1 0 1.414l-7 7a1 1 0 0 1-1.414-1.414L14.586 12 8.293 5.707a1 1 0 0 1 0-1.414Z" clip-rule="evenodd"/>
</symbol>
<symbol id="website" viewBox="0 0 512 512">
	<path d="M256 0C114.615 0 0 114.615 0 256s114.615 256 256 256 256-114.615 256-256S397.385 0 256 0zm162.275 146h-46.667c-5.365-22.513-12.324-43.213-20.587-61.514 15.786 8.776 30.449 19.797 43.572 32.921A198.054 198.054 0 0 1 418.275 146zM452 256c0 17.108-2.191 33.877-6.414 50h-64.034c1.601-16.172 2.448-32.887 2.448-50s-.847-33.828-2.448-50h64.034c4.223 16.123 6.414 32.892 6.414 50zM256 452c-5.2 0-21.048-10.221-36.844-41.813-6.543-13.087-12.158-27.994-16.752-44.187h107.191c-4.594 16.192-10.208 31.1-16.752 44.187C277.048 441.779 261.2 452 256 452zm-65.187-146c-1.847-16.247-2.813-33.029-2.813-50s.966-33.753 2.813-50h130.374c1.847 16.247 2.813 33.029 2.813 50s-.966 33.753-2.813 50H190.813zM60 256c0-17.108 2.191-33.877 6.414-50h64.034c-1.601 16.172-2.448 32.887-2.448 50s.847 33.828 2.448 50H66.414C62.191 289.877 60 273.108 60 256zM256 60c5.2 0 21.048 10.221 36.844 41.813 6.543 13.087 12.158 27.994 16.752 44.187H202.404c4.594-16.192 10.208-31.1 16.752-44.187C234.952 70.221 250.8 60 256 60zm-95.021 24.486c-8.264 18.301-15.222 39-20.587 61.514H93.725a198.12 198.12 0 0 1 23.682-28.593c13.124-13.124 27.786-24.145 43.572-32.921zM93.725 366h46.667c5.365 22.513 12.324 43.213 20.587 61.514-15.786-8.776-30.449-19.797-43.572-32.921A198.054 198.054 0 0 1 93.725 366zm257.296 61.514c8.264-18.301 15.222-39 20.587-61.514h46.667a198.12 198.12 0 0 1-23.682 28.593c-13.124 13.124-27.786 24.145-43.572 32.921z"/>
</symbol>
</svg>